<?xml version="1.0" encoding="UTF-8"?>
<svg id="Objects" xmlns="http://www.w3.org/2000/svg" version="1.1" viewBox="0 0 2200 2200">
  <!-- Generator: Adobe Illustrator 29.0.1, SVG Export Plug-In . SVG Version: 2.1.0 Build 192)  -->
  <defs>
    <style>
      .st0 {
        fill: #f0c7d7;
      }
    </style>
  </defs>
  <path class="st0" d="M1825.9,1295.7l156.9-602.8c13.4-51.3-25.4-101.5-78.4-101.5H616.9l-27.8-171c-5.1-31.6-32.5-54.9-64.5-54.9H198.4c-16.5,0-31.3,6.7-42.1,17.4-10.7,10.7-17.3,25.4-17.4,41.6-.3,33,27.6,60,60.6,60h279.4l166.4,1024c5.1,31.6,32.5,54.9,64.5,54.9h1096.1c33,0,60.9-27,60.6-60-.1-16.3-6.8-31-17.4-41.6-10.8-10.8-25.7-17.4-42.1-17.4H755.5l-14.3-88.2h1006.4c36.9,0,69.1-24.9,78.4-60.6Z"/>
  <circle class="st0" cx="890.2" cy="1776.6" r="150.9"/>
  <circle class="st0" cx="1599.2" cy="1776.6" r="150.9"/>
</svg>