<?xml version="1.0" encoding="UTF-8"?>
<svg id="Capa_1" xmlns="http://www.w3.org/2000/svg" version="1.1" viewBox="0 0 226.8 226.8">
  <!-- Generator: Adobe Illustrator 29.0.1, SVG Export Plug-In . SVG Version: 2.1.0 Build 192)  -->
  <defs>
    <style>
      .st0 {
        fill: #fff;
      }

      .st1 {
        fill: #808081;
      }
    </style>
  </defs>
  <g>
    <path class="st1" d="M204.9,70.6c-5.1-12.2-12.5-23.1-21.9-32.4-9.4-9.4-20.3-16.7-32.4-21.9-12.6-5.3-25.9-8-39.7-8s-27.1,2.7-39.7,8c-12.2,5.1-23.1,12.5-32.4,21.9-9.4,9.4-16.7,20.3-21.9,32.4-5.3,12.6-8,25.9-8,39.7s2.7,27.1,8,39.7c5.1,12.2,12.5,23.1,21.9,32.4,9.4,9.4,20.3,16.7,32.4,21.9,12.6,5.3,25.9,8,39.7,8s27.1-2.7,39.7-8c12.2-5.1,23.1-12.5,32.4-21.9,9.4-9.4,16.7-20.3,21.9-32.4,5.3-12.6,8-25.9,8-39.7s-2.7-27.1-8-39.7Z"/>
    <path class="st1" d="M211.5,67.8c-5.5-13-13.4-24.7-23.4-34.7-10-10-21.7-17.9-34.7-23.4-13.5-5.7-27.8-8.6-42.5-8.6s-29.1,2.9-42.5,8.6c-13,5.5-24.7,13.4-34.7,23.4s-17.9,21.7-23.4,34.7c-5.7,13.5-8.6,27.8-8.6,42.5s2.9,29.1,8.6,42.5c5.5,13,13.4,24.7,23.4,34.7s21.7,17.9,34.7,23.4c13.5,5.7,27.8,8.6,42.5,8.6s29.1-2.9,42.5-8.6c13-5.5,24.7-13.4,34.7-23.4,10-10,17.9-21.7,23.4-34.7,5.7-13.5,8.6-27.8,8.6-42.5s-2.9-29.1-8.6-42.5ZM204.9,150c-5.1,12.2-12.5,23.1-21.9,32.4-9.4,9.4-20.3,16.7-32.4,21.9-12.6,5.3-25.9,8-39.7,8s-27.1-2.7-39.7-8c-12.2-5.1-23.1-12.5-32.4-21.9-9.4-9.4-16.7-20.3-21.9-32.4-5.3-12.6-8-25.9-8-39.7s2.7-27.1,8-39.7c5.1-12.2,12.5-23.1,21.9-32.4,9.4-9.4,20.3-16.7,32.4-21.9,12.6-5.3,25.9-8,39.7-8s27.1,2.7,39.7,8c12.2,5.1,23.1,12.5,32.4,21.9,9.4,9.4,16.7,20.3,21.9,32.4,5.3,12.6,8,25.9,8,39.7s-2.7,27.1-8,39.7Z"/>
  </g>
  <path class="st0" d="M163.2,60.2H58.6c-9.5,0-17.2,7.7-17.2,17.2v65.8c0,9.5,7.7,17.2,17.2,17.2h104.5c9.5,0,17.2-7.7,17.2-17.2v-65.8c0-9.5-7.7-17.2-17.2-17.2ZM173.5,77.4v65.8c0,1.5-.3,3-.9,4.3l-42.5-37.2,42.5-37.2c.6,1.3.9,2.8.9,4.3ZM163.2,67c1.6,0,3,.3,4.4,1l-53.4,46.7c-1.8,1.6-4.6,1.6-6.5,0l-53.4-46.7c1.3-.6,2.8-1,4.4-1h104.5ZM49.2,147.5c-.6-1.3-.9-2.8-.9-4.3v-65.8c0-1.5.3-3,.9-4.3l42.5,37.2-42.5,37.2ZM58.6,153.6c-1.6,0-3-.3-4.4-1l42.9-37.5,5.8,5.1c2.3,2,5.1,3,8,3s5.7-1,8-3l5.8-5.1,42.9,37.5c-1.3.6-2.8,1-4.4,1H58.6Z"/>
</svg>