<?xml version="1.0" encoding="UTF-8"?>
<svg id="Capa_1" xmlns="http://www.w3.org/2000/svg" version="1.1" viewBox="0 0 1024 768">
  <!-- Generator: Adobe Illustrator 29.0.1, SVG Export Plug-In . SVG Version: 2.1.0 Build 192)  -->
  <defs>
    <style>
      .st0 {
        fill: #fff;
      }

      .st1 {
        fill: gray;
      }
    </style>
  </defs>
  <path class="st0" d="M695.7,336.5c0-44.2-35.9-80.1-80.1-80.1h-204.9c-44.2,0-80.1,35.9-80.1,80.1v95.3c0,44.2,35.9,80.1,80.1,80.1h204.9c44.2,0,80.1-35.9,80.1-80.1v-95.3ZM575.2,391.3l-91.9,45.4c-3.6,1.9-15.8-.7-15.8-4.8v-93.3c0-4.1,12.3-6.8,15.9-4.7l87.9,47.8c3.7,2.1,7.6,7.4,3.8,9.5Z"/>
  <g>
    <circle class="st1" cx="513.2" cy="384.1" r="380.9"/>
    <path class="st0" d="M513.2,194.2c-104.9,0-190.2,85.2-190.2,189.9s85.3,189.9,190.2,189.9,190.2-85.2,190.2-189.9-85.3-189.9-190.2-189.9h0ZM638.3,283.9c21.7,26.9,34.9,60.8,35.5,97.8-7.2-1.5-37.8-7.2-74.3-7.2s-24.2.6-36.6,2.1c-1.1-2.6-2.1-5.1-3.2-7.7-3.2-7.6-6.7-15.1-10.3-22.5,56.2-23.2,83.3-55.3,89-62.6h0ZM513.2,223.9c40.5,0,77.6,15.1,105.9,39.9-4.5,6.1-28.8,36.5-83,57-25.1-45.9-52.6-83.9-59.1-92.7,11.6-2.7,23.8-4.1,36.2-4.1h0ZM444.2,239.5c5.5,7.6,33,46,58.8,91.5-69.1,18.2-130.4,19.3-145.2,19.3h-1.6c10.6-49,43.8-89.7,88-110.9h0ZM352.5,384.4c0-1.3,0-2.6,0-4,1,0,2.4,0,4.2,0,19.9,0,89.1-1.6,160.5-22.8,4.3,8.5,8.5,17.1,12.3,25.6-1.8.5-3.6,1-5.3,1.6-80.3,25.9-124.4,94.6-131.2,105.8-25.2-28.4-40.5-65.6-40.5-106.3h0ZM513.2,544.8c-36.8,0-70.9-12.5-98-33.4,4.6-9,37.9-69,125.9-99.6,0,0,.1,0,.2,0,22.1,57.4,31.4,105.7,34,120.6-19.1,8-40.1,12.5-62.1,12.5h0ZM604.2,516.6c-2.2-12.4-10.8-57.5-30.8-112.7,11.2-1.7,22.1-2.4,32.3-2.4,33.6,0,59.8,7.4,66,9.2-7.3,43.8-32.3,81.6-67.5,105.9h0Z"/>
  </g>
</svg>