<?xml version="1.0" encoding="UTF-8"?>
<svg id="Capa_1" xmlns="http://www.w3.org/2000/svg" version="1.1" xmlns:xlink="http://www.w3.org/1999/xlink" viewBox="0 0 198.3 198">
  <!-- Generator: Adobe Illustrator 29.0.1, SVG Export Plug-In . SVG Version: 2.1.0 Build 192)  -->
  <defs>
    <style>
      .st0 {
        clip-path: url(#clippath-6);
      }

      .st1 {
        clip-path: url(#clippath-7);
      }

      .st2 {
        clip-path: url(#clippath-4);
      }

      .st3 {
        stroke: #dadada;
      }

      .st3, .st4, .st5 {
        fill: none;
      }

      .st3, .st5 {
        stroke-miterlimit: 10;
      }

      .st6 {
        fill: #fff;
      }

      .st7 {
        fill: #a3c688;
      }

      .st8 {
        fill: #f6bbd4;
      }

      .st9 {
        clip-path: url(#clippath-1);
      }

      .st10 {
        clip-path: url(#clippath-5);
      }

      .st11 {
        clip-path: url(#clippath-3);
      }

      .st5 {
        stroke: #fff;
        stroke-linecap: round;
        stroke-width: 9.5px;
      }

      .st12 {
        display: none;
      }

      .st13 {
        clip-path: url(#clippath-2);
      }

      .st14 {
        clip-path: url(#clippath);
      }
    </style>
    <clipPath id="clippath-4">
      <rect class="st4" x="5693.6" y="5711.2" width="198" height="198"/>
    </clipPath>
    <symbol id="Nuevo_símbolo" viewBox="0 0 11602.8 11602.8">
      <g>
        <circle class="st3" cx="5792.6" cy="5810.2" r="99"/>
        <rect class="st3" x="5743.1" y="5760.7" width="99" height="99"/>
        <circle class="st3" cx="5792.6" cy="5810.2" r="71.2"/>
        <rect class="st3" x="5693.6" y="5711.2" width="198" height="198"/>
        <rect class="st3" x="5792.6" y="5711.2" width="99" height="99"/>
        <rect class="st3" x="5792.6" y="5810.1" width="99" height="99"/>
        <rect class="st3" x="5693.6" y="5711.2" width="99" height="99"/>
        <rect class="st3" x="5693.6" y="5810.1" width="99" height="99"/>
        <rect class="st3" x="5842.1" y="5859.7" width="49.5" height="49.5"/>
        <rect class="st3" x="5842.1" y="5711.2" width="49.5" height="49.5"/>
        <rect class="st3" x="5693.3" y="5859.7" width="49.5" height="49.5"/>
        <rect class="st3" x="5693.3" y="5711.2" width="49.5" height="49.5"/>
        <g class="st2">
          <g>
            <line class="st3" x1="11584.9" y1="11602.4" x2=".4" y2="17.9"/>
            <line class="st3" x1="17.9" y1="11584.9" x2="11602.4" y2=".4"/>
          </g>
        </g>
        <circle class="st3" cx="5792.6" cy="5810.2" r="86.4"/>
      </g>
    </symbol>
    <symbol id="Nuevo_símbolo_4" viewBox="0 0 49.2 80.1">
      <path class="st6" d="M48.8,0c-13.9,5.5-27.4,16.7-36.8,32.4C2.5,48.1-1.3,65.2.4,80.1c13.9-5.5,27.4-16.7,36.8-32.4S50.4,14.9,48.8,0Z"/>
    </symbol>
    <clipPath id="clippath">
      <circle class="st4" cx="99.3" cy="99" r="71.2"/>
    </clipPath>
    <clipPath id="clippath-1">
      <rect class="st4" x="103.9" y="49" width="50.4" height="82" transform="translate(-13 22.3) rotate(-9.4)"/>
    </clipPath>
    <clipPath id="clippath-2">
      <rect class="st4" x="81.1" y="92" width="43.2" height="26.5" transform="translate(-22.6 182.3) rotate(-77.3)"/>
    </clipPath>
    <clipPath id="clippath-3">
      <rect class="st4" x="-5461.3" y="-5711.2" width="11602.8" height="11602.8"/>
    </clipPath>
    <clipPath id="clippath-5">
      <rect class="st4" x="-5693.3" y="-5711.2" width="11602.8" height="11602.8"/>
    </clipPath>
    <clipPath id="clippath-6">
      <rect class="st4" x="-5918.4" y="-5711.2" width="11602.8" height="11602.8"/>
    </clipPath>
    <clipPath id="clippath-7">
      <rect class="st4" x="-6143.2" y="-5711.2" width="11602.8" height="11602.8"/>
    </clipPath>
  </defs>
  <g id="CIRCULOS" class="st12">
    <circle class="st8" cx="99.1" cy="99" r="99.4"/>
  </g>
  <g id="EDIT">
    <circle class="st7" cx="99.3" cy="99" r="71.2"/>
    <g>
      <g class="st14">
        <polyline class="st5" points="55.4 62.7 99.1 169.5 142.9 62.7"/>
      </g>
      <g class="st9">
        <use width="49.2" height="80.1" transform="translate(96.2 53.9) rotate(-9.4) scale(1)" xlink:href="#Nuevo_símbolo_4"/>
      </g>
    </g>
    <g class="st13">
      <use width="49.2" height="80.1" transform="translate(121 87.3) rotate(-167.3) scale(.5 -.5)" xlink:href="#Nuevo_símbolo_4"/>
    </g>
  </g>
  <g id="reticula" class="st12">
    <g class="st11">
      <use width="11602.8" height="11602.8" transform="translate(-5461.3 -5711.2)" xlink:href="#Nuevo_símbolo"/>
    </g>
    <g class="st10">
      <use width="11602.8" height="11602.8" transform="translate(-5693.3 -5711.2)" xlink:href="#Nuevo_símbolo"/>
    </g>
    <g class="st0">
      <use width="11602.8" height="11602.8" transform="translate(-5918.3 -5711.2)" xlink:href="#Nuevo_símbolo"/>
    </g>
    <g class="st1">
      <use width="11602.8" height="11602.8" transform="translate(-6143.2 -5711.2)" xlink:href="#Nuevo_símbolo"/>
    </g>
  </g>
</svg>