<?xml version="1.0" encoding="UTF-8"?>
<svg id="Capa_1" xmlns="http://www.w3.org/2000/svg" version="1.1" xmlns:xlink="http://www.w3.org/1999/xlink" viewBox="0 0 198.3 198">
  <!-- Generator: Adobe Illustrator 29.0.1, SVG Export Plug-In . SVG Version: 2.1.0 Build 192)  -->
  <defs>
    <style>
      .st0 {
        clip-path: url(#clippath-6);
      }

      .st1 {
        clip-path: url(#clippath-7);
      }

      .st2 {
        clip-path: url(#clippath-4);
      }

      .st3 {
        stroke: #dadada;
        stroke-miterlimit: 10;
      }

      .st3, .st4 {
        fill: none;
      }

      .st5 {
        fill: #fff;
      }

      .st6 {
        fill: #f6bbd4;
      }

      .st7 {
        clip-path: url(#clippath-1);
      }

      .st8 {
        fill: #d4007f;
      }

      .st9 {
        clip-path: url(#clippath-5);
      }

      .st10 {
        clip-path: url(#clippath-8);
      }

      .st11 {
        clip-path: url(#clippath-3);
      }

      .st12 {
        display: none;
      }

      .st13 {
        fill: #1d1d1b;
      }

      .st14 {
        clip-path: url(#clippath-2);
      }

      .st15 {
        clip-path: url(#clippath);
      }
    </style>
    <clipPath id="clippath-5">
      <rect class="st4" x="5693.6" y="5711.2" width="198" height="198"/>
    </clipPath>
    <symbol id="Nuevo_símbolo" viewBox="0 0 11602.8 11602.8">
      <g>
        <circle class="st3" cx="5792.6" cy="5810.2" r="99"/>
        <rect class="st3" x="5743.1" y="5760.7" width="99" height="99"/>
        <circle class="st3" cx="5792.6" cy="5810.2" r="71.2"/>
        <rect class="st3" x="5693.6" y="5711.2" width="198" height="198"/>
        <rect class="st3" x="5792.6" y="5711.2" width="99" height="99"/>
        <rect class="st3" x="5792.6" y="5810.1" width="99" height="99"/>
        <rect class="st3" x="5693.6" y="5711.2" width="99" height="99"/>
        <rect class="st3" x="5693.6" y="5810.1" width="99" height="99"/>
        <rect class="st3" x="5842.1" y="5859.7" width="49.5" height="49.5"/>
        <rect class="st3" x="5842.1" y="5711.2" width="49.5" height="49.5"/>
        <rect class="st3" x="5693.3" y="5859.7" width="49.5" height="49.5"/>
        <rect class="st3" x="5693.3" y="5711.2" width="49.5" height="49.5"/>
        <g class="st9">
          <g>
            <line class="st3" x1="11584.9" y1="11602.4" x2=".4" y2="17.9"/>
            <line class="st3" x1="17.9" y1="11584.9" x2="11602.4" y2=".4"/>
          </g>
        </g>
        <circle class="st3" cx="5792.6" cy="5810.2" r="86.4"/>
      </g>
    </symbol>
    <symbol id="Nuevo_símbolo_4" viewBox="0 0 49.2 80.1">
      <path class="st5" d="M48.8,0c-13.9,5.5-27.4,16.7-36.8,32.4C2.5,48.1-1.3,65.2.4,80.1c13.9-5.5,27.4-16.7,36.8-32.4S50.4,14.9,48.8,0Z"/>
    </symbol>
    <symbol id="Nuevo_símbolo_5" viewBox="0 0 12.3 12.3">
      <g>
        <circle class="st13" cx="6.2" cy="6.2" r="6.2"/>
        <polygon class="st13" points="6.2 0 12.3 0 12.3 6.2 6.2 0"/>
      </g>
    </symbol>
    <clipPath id="clippath">
      <rect class="st4" x="110.9" y="38" width="49.2" height="80.1"/>
    </clipPath>
    <clipPath id="clippath-1">
      <rect class="st4" x="38.2" y="38" width="49.2" height="80.1"/>
    </clipPath>
    <clipPath id="clippath-2">
      <rect class="st4" x="109" y="121.2" width="12.4" height="12.4"/>
    </clipPath>
    <clipPath id="clippath-3">
      <rect class="st4" x="76.9" y="121.2" width="12.4" height="12.4"/>
    </clipPath>
    <clipPath id="clippath-4">
      <rect class="st4" x="-5011.4" y="-5711.2" width="11602.8" height="11602.8"/>
    </clipPath>
    <clipPath id="clippath-6">
      <rect class="st4" x="-5243.5" y="-5711.2" width="11602.8" height="11602.8"/>
    </clipPath>
    <clipPath id="clippath-7">
      <rect class="st4" x="-5468.5" y="-5711.2" width="11602.8" height="11602.8"/>
    </clipPath>
    <clipPath id="clippath-8">
      <rect class="st4" x="-5693.3" y="-5711.2" width="11602.8" height="11602.8"/>
    </clipPath>
  </defs>
  <g id="CIRCULOS" class="st12">
    <circle class="st6" cx="99.1" cy="99" r="99.4"/>
  </g>
  <g id="EDIT">
    <g>
      <g class="st15">
        <use width="49.2" height="80.1" transform="translate(109.6 38)" xlink:href="#Nuevo_símbolo_4"/>
      </g>
      <g class="st7">
        <use width="49.2" height="80.1" transform="translate(88.7 38) rotate(-180) scale(1 -1)" xlink:href="#Nuevo_símbolo_4"/>
      </g>
      <path class="st5" d="M136.3,127.3c-2.6-1.7-4-4.7-4-7.8h0c0-16.2-14.8-29.2-33.1-29.2s-33.1,13.1-33.1,29.2h0c0,3.2-1.4,6.1-4,7.9-6.7,4.5-10.8,10.3-10.8,16.6,0,14.5,21.4,26.3,47.9,26.3s47.9-11.8,47.9-26.3c0-6.3-4-12.1-10.8-16.6Z"/>
      <path class="st8" d="M99.2,159.1s0,0-.1,0c0,0-9.8-6.2-9.8-12.7s2.4-4.8,5.3-4.8c1.9,0,3.6,1,4.5,2.4,0,0,.1,0,.1,0,.9-1.4,2.6-2.4,4.6-2.4,2.8,0,5.2,2.1,5.2,4.7,0,6.8-9.8,12.8-9.8,12.8Z"/>
      <g>
        <g class="st14">
          <use width="12.3" height="12.3" transform="translate(109 121.2)" xlink:href="#Nuevo_símbolo_5"/>
        </g>
        <g class="st11">
          <use width="12.3" height="12.3" transform="translate(89.2 121.2) rotate(-180) scale(1 -1)" xlink:href="#Nuevo_símbolo_5"/>
        </g>
      </g>
    </g>
  </g>
  <g id="reticula" class="st12">
    <g class="st2">
      <use width="11602.8" height="11602.8" transform="translate(-5011.4 -5711.2)" xlink:href="#Nuevo_símbolo"/>
    </g>
    <g class="st0">
      <use width="11602.8" height="11602.8" transform="translate(-5243.4 -5711.2)" xlink:href="#Nuevo_símbolo"/>
    </g>
    <g class="st1">
      <use width="11602.8" height="11602.8" transform="translate(-5468.5 -5711.2)" xlink:href="#Nuevo_símbolo"/>
    </g>
    <g class="st10">
      <use width="11602.8" height="11602.8" transform="translate(-5693.3 -5711.2)" xlink:href="#Nuevo_símbolo"/>
    </g>
  </g>
</svg>