<?xml version="1.0" encoding="UTF-8"?>
<svg id="Capa_1" xmlns="http://www.w3.org/2000/svg" version="1.1" xmlns:xlink="http://www.w3.org/1999/xlink" viewBox="0 0 198.3 198">
  <!-- Generator: Adobe Illustrator 29.0.1, SVG Export Plug-In . SVG Version: 2.1.0 Build 192)  -->
  <defs>
    <style>
      .st0 {
        clip-path: url(#clippath-4);
      }

      .st1 {
        stroke: #dadada;
        stroke-miterlimit: 10;
      }

      .st1, .st2 {
        fill: none;
      }

      .st3 {
        fill: #af6a4b;
      }

      .st4 {
        fill: #ffc69f;
      }

      .st5 {
        fill: #fff;
      }

      .st6 {
        fill: #623917;
      }

      .st7 {
        fill: #f6bbd4;
      }

      .st8 {
        fill: #cc9663;
      }

      .st9 {
        clip-path: url(#clippath-1);
      }

      .st10 {
        fill: #f7ddc4;
      }

      .st11 {
        clip-path: url(#clippath-3);
      }

      .st12 {
        fill: #edbe84;
      }

      .st13 {
        display: none;
      }

      .st14 {
        clip-path: url(#clippath-2);
      }

      .st15 {
        fill: #804a2a;
      }

      .st16 {
        clip-path: url(#clippath);
      }

      .st17 {
        fill: #2f1d11;
      }
    </style>
    <clipPath id="clippath-1">
      <rect class="st2" x="5693.6" y="5693.6" width="198" height="198"/>
    </clipPath>
    <symbol id="Nuevo_símbolo" viewBox="0 0 11602.7 11602.7">
      <g>
        <circle class="st1" cx="5792.6" cy="5792.6" r="99"/>
        <rect class="st1" x="5743.1" y="5743.1" width="99" height="99"/>
        <circle class="st1" cx="5792.6" cy="5792.6" r="71.2"/>
        <rect class="st1" x="5693.6" y="5693.6" width="198" height="198"/>
        <rect class="st1" x="5792.6" y="5792.6" width="99" height="99"/>
        <rect class="st1" x="5792.6" y="5693.7" width="99" height="99"/>
        <rect class="st1" x="5693.6" y="5792.6" width="99" height="99"/>
        <rect class="st1" x="5693.6" y="5693.7" width="99" height="99"/>
        <rect class="st1" x="5842.1" y="5693.6" width="49.5" height="49.5"/>
        <rect class="st1" x="5842.1" y="5842.1" width="49.5" height="49.5"/>
        <rect class="st1" x="5693.3" y="5693.6" width="49.5" height="49.5"/>
        <rect class="st1" x="5693.3" y="5842.1" width="49.5" height="49.5"/>
        <g class="st9">
          <g>
            <line class="st1" x1="11584.9" y1=".4" x2=".4" y2="11584.9"/>
            <line class="st1" x1="17.9" y1="17.9" x2="11602.4" y2="11602.4"/>
          </g>
        </g>
        <circle class="st1" cx="5792.6" cy="5792.6" r="86.4"/>
      </g>
    </symbol>
    <clipPath id="clippath">
      <rect class="st2" x="-5236.3" y="-5711.2" width="11602.8" height="11602.8"/>
    </clipPath>
    <clipPath id="clippath-2">
      <rect class="st2" x="-5468.3" y="-5711.2" width="11602.8" height="11602.8"/>
    </clipPath>
    <clipPath id="clippath-3">
      <rect class="st2" x="-5693.3" y="-5711.2" width="11602.8" height="11602.8"/>
    </clipPath>
    <clipPath id="clippath-4">
      <rect class="st2" x="-5918.2" y="-5711.2" width="11602.8" height="11602.8"/>
    </clipPath>
  </defs>
  <g id="CIRCULOS" class="st13">
    <circle class="st7" cx="99.1" cy="99" r="99.4"/>
  </g>
  <g id="EDIT">
    <g>
      <path class="st17" d="M149.4,149.4c12.9-12.9,20.8-30.7,20.8-50.3h0c0,0-71.1,0-71.1,0h0c0,0,50.3,50.4,50.3,50.4Z"/>
      <path class="st6" d="M99.1,170.2c18.2,0,36.4-6.9,50.3-20.8h0l-50.3-50.4h0v71.2h0Z"/>
      <path class="st15" d="M48.7,149.3c12.9,12.9,30.7,20.8,50.3,20.8h0v-71.1h0l-50.3,50.3Z"/>
      <path class="st3" d="M27.9,98.9c0,18.2,6.9,36.4,20.8,50.3h0l50.3-50.3h0s-71.1,0-71.1,0Z"/>
      <path class="st8" d="M48.8,48.6c-12.9,12.9-20.8,30.7-20.8,50.3h0c0,0,71.1,0,71.1,0h0c0,0-50.3-50.4-50.3-50.4Z"/>
      <path class="st12" d="M99.2,27.8c-18.2,0-36.4,6.9-50.3,20.8h0l50.3,50.4h0V27.8h0Z"/>
      <path class="st4" d="M149.6,48.7c-12.9-12.9-30.7-20.8-50.3-20.8h0v71.1h0l50.3-50.3Z"/>
      <path class="st10" d="M170.4,99.1c0-18.2-6.9-36.4-20.8-50.3h0l-50.3,50.3h71.1Z"/>
    </g>
    <path class="st5" d="M99.3,130.5c0,.1-.3.1-.4,0,0,0-28.1-18-28.1-36.6s6.8-13.9,15.3-13.8c5.5,0,10.3,2.8,12.9,6.9,0,0,.3,0,.4,0,2.6-4.2,7.5-6.9,13.2-6.9,8.1,0,15,6.2,15,13.6,0,19.7-28.2,36.9-28.2,36.9h-.1Z"/>
  </g>
  <g id="reticula" class="st13">
    <g class="st16">
      <use width="11602.7" height="11602.7" transform="translate(-5236.3 5891.6) scale(1 -1)" xlink:href="#Nuevo_símbolo"/>
    </g>
    <g class="st14">
      <use width="11602.7" height="11602.7" transform="translate(-5468.3 5891.6) scale(1 -1)" xlink:href="#Nuevo_símbolo"/>
    </g>
    <g class="st11">
      <use width="11602.7" height="11602.7" transform="translate(-5693.3 5891.6) scale(1 -1)" xlink:href="#Nuevo_símbolo"/>
    </g>
    <g class="st0">
      <use width="11602.7" height="11602.7" transform="translate(-5918.2 5891.6) scale(1 -1)" xlink:href="#Nuevo_símbolo"/>
    </g>
  </g>
</svg>