<?xml version="1.0" encoding="UTF-8"?>
<svg id="Capa_1" xmlns="http://www.w3.org/2000/svg" version="1.1" viewBox="0 0 1024 768">
  <!-- Generator: Adobe Illustrator 29.0.1, SVG Export Plug-In . SVG Version: 2.1.0 Build 192)  -->
  <defs>
    <style>
      .st0 {
        fill: #fff;
      }

      .st1 {
        fill: gray;
      }
    </style>
  </defs>
  <path class="st0" d="M554.7,627.5v-212.6h70.9l13.5-87.9h-84.4v-57.1c0-24.1,11.8-47.5,49.6-47.5h38.4v-74.9s-34.8-5.9-68.1-5.9c-69.5,0-114.9,42.1-114.9,118.4v67h-77.2v87.9h77.2v212.6h95.1Z"/>
  <g>
    <circle class="st1" cx="513.2" cy="384.1" r="379.9"/>
    <g>
      <path class="st0" d="M617.8,257.1c-12.8,0-23.2,10.4-23.2,23.2s10.4,23.2,23.2,23.2,23.2-10.4,23.2-23.2-10.4-23.2-23.2-23.2Z"/>
      <path class="st0" d="M514.8,286.8c-53.7,0-97.4,43.7-97.4,97.4s43.7,97.4,97.4,97.4,97.4-43.7,97.4-97.4-43.7-97.4-97.4-97.4ZM514.8,446.5c-34.4,0-62.4-28-62.4-62.4s28-62.4,62.4-62.4,62.4,28,62.4,62.4-28,62.4-62.4,62.4Z"/>
      <path class="st0" d="M592.1,581.8h-157.8c-65.5,0-118.8-53.3-118.8-118.8v-157.8c0-65.5,53.3-118.8,118.8-118.8h157.8c65.5,0,118.8,53.3,118.8,118.8v157.8c0,65.5-53.3,118.8-118.8,118.8ZM434.2,223.7c-45,0-81.6,36.6-81.6,81.6v157.8c0,45,36.6,81.6,81.6,81.6h157.8c45,0,81.6-36.6,81.6-81.6v-157.8c0-45-36.6-81.6-81.6-81.6h-157.8Z"/>
    </g>
  </g>
</svg>