<svg width="157" height="65" viewBox="0 0 157 65" fill="none" xmlns="http://www.w3.org/2000/svg">
<path d="M53.7767 50.8245C53.8234 50.822 53.87 50.8299 53.9133 50.8474C53.9566 50.8649 53.9955 50.8916 54.0273 50.9258C54.0904 50.9978 54.1229 51.0915 54.118 51.1871V64.466C54.118 64.5777 54.0736 64.6848 53.9946 64.7639C53.9156 64.8429 53.8084 64.8873 53.6967 64.8873H50.2783C50.3969 64.8625 50.5094 64.8144 50.6092 64.7458C50.709 64.6771 50.7942 64.5892 50.8596 64.4873C51.0124 64.2838 51.0982 64.0378 51.1049 63.7833V52.4297C51.0982 52.1752 51.0124 51.9292 50.8596 51.7257C50.7948 51.6232 50.7099 51.5349 50.61 51.4661C50.5101 51.3974 50.3972 51.3496 50.2783 51.3258L53.7127 50.8245H53.7767ZM60.1762 59.501C60.2438 60.1699 60.2024 60.8453 60.0535 61.5009C59.9214 62.1001 59.6908 62.6731 59.3709 63.1967C59.0754 63.6792 58.6809 64.0936 58.2136 64.4126C57.7623 64.7162 57.2411 64.8998 56.6991 64.9459C56.2626 65.0009 55.8194 64.9552 55.4032 64.8126C54.9769 64.6726 54.5781 64.4597 54.2247 64.1833C54.4093 64.2674 54.6085 64.3145 54.8113 64.322C55.1584 64.3151 55.4908 64.1803 55.7445 63.9433C56.058 63.6529 56.3132 63.3054 56.4965 62.9194C56.7318 62.446 56.9108 61.9467 57.0298 61.4316C57.1595 60.8504 57.2238 60.2565 57.2217 59.661C57.2244 59.0708 57.16 58.4822 57.0298 57.9065C56.9118 57.3963 56.7327 56.9021 56.4965 56.4346C56.3133 56.0548 56.0579 55.7143 55.7445 55.4321C55.4892 55.1983 55.1574 55.0656 54.8113 55.0588C54.6092 55.0571 54.4091 55.0989 54.2247 55.1814C54.6515 54.9836 55.1068 54.8541 55.5739 54.7975C56.1193 54.7441 56.6694 54.8284 57.1738 55.0428C57.7069 55.2607 58.1897 55.5855 58.5923 55.9974C59.0348 56.4431 59.3958 56.9629 59.6589 57.5332C59.937 58.1561 60.1083 58.8213 60.1655 59.501H60.1762Z" fill="#898C8A"/>
<path d="M64.6451 63.7832C64.6496 64.0372 64.7335 64.2833 64.885 64.4872C65.0186 64.6918 65.2275 64.8356 65.4663 64.8871H60.8054C60.924 64.8624 61.0365 64.8143 61.1363 64.7456C61.2361 64.677 61.3212 64.5891 61.3867 64.4872C61.5418 64.2849 61.6278 64.0381 61.632 63.7832V56.6372C61.6313 56.3801 61.545 56.1305 61.3867 55.9279C61.3209 55.8268 61.2356 55.7398 61.1358 55.672C61.036 55.6042 60.9237 55.5571 60.8054 55.5333L64.2398 55.032H64.2931C64.3394 55.0258 64.3865 55.0304 64.4307 55.0454C64.4749 55.0604 64.515 55.0854 64.548 55.1184C64.581 55.1514 64.606 55.1915 64.621 55.2357C64.636 55.28 64.6406 55.327 64.6344 55.3733V63.7832H64.6451ZM67.2155 54.6214C67.6277 54.6409 68.0193 54.8074 68.3194 55.0906C68.4677 55.2255 68.5858 55.3903 68.6657 55.5742C68.7457 55.758 68.7858 55.9568 68.7834 56.1572C68.7843 56.4156 68.7212 56.6702 68.5997 56.8981C68.4781 57.1261 68.3019 57.3204 68.0869 57.4636C67.8718 57.6068 67.6246 57.6944 67.3674 57.7187C67.1101 57.7429 66.8509 57.703 66.6129 57.6024C66.4298 57.5245 66.2633 57.4122 66.1223 57.2718C65.9787 57.1293 65.8661 56.9586 65.7916 56.7705C65.7087 56.5768 65.6669 56.3679 65.669 56.1572C65.6712 56.0496 65.6837 55.9425 65.7063 55.8372C65.7757 55.5653 65.7063 55.384 65.5463 55.304C65.3863 55.224 65.093 55.2453 64.7037 55.432C64.8797 55.3413 65.0717 55.2453 65.285 55.1546C65.4983 55.064 65.717 54.9733 65.941 54.8933C66.1575 54.8136 66.3783 54.746 66.6023 54.6907C66.8017 54.635 67.0087 54.6116 67.2155 54.6214Z" fill="#898C8A"/>
<path d="M77.0012 63.3779C77.0042 63.6321 77.0883 63.8787 77.2412 64.0818C77.3063 64.1846 77.3913 64.2733 77.4911 64.3429C77.5909 64.4125 77.7035 64.4615 77.8224 64.4871L74.3881 64.9884H74.3454C74.2484 64.9899 74.1547 64.9535 74.0841 64.8871C74.0191 64.8159 73.9846 64.7221 73.9881 64.6258V58.8183L73.3801 59.1223C73.1318 59.2504 72.9021 59.4119 72.6975 59.6022C72.4625 59.8221 72.266 60.0799 72.1162 60.3648C71.9342 60.7288 71.829 61.1263 71.807 61.5327C71.7604 61.9605 71.7966 62.3932 71.9136 62.8073C72.0084 63.1398 72.178 63.4463 72.4095 63.7032C72.6171 63.9274 72.8802 64.093 73.1722 64.1832C73.2929 64.234 73.4225 64.2603 73.5535 64.2603C73.6844 64.2603 73.8141 64.234 73.9348 64.1832C73.6305 64.3908 73.3073 64.5694 72.9695 64.7164C72.5214 64.914 72.0352 65.0105 71.5456 64.9991C70.9381 65.0043 70.3425 64.83 69.8338 64.4978C69.3502 64.1819 69.0001 63.6988 68.8505 63.1409C68.701 62.5829 68.7624 61.9895 69.0232 61.4741C69.3066 60.9188 69.741 60.4548 70.2764 60.1355C70.6168 59.929 70.9735 59.7507 71.343 59.6022C71.7643 59.4369 72.2122 59.2716 72.6869 59.1116L74.1054 58.6263C74.5406 58.4743 74.9662 58.2962 75.38 58.093C75.7172 57.9329 76.0326 57.7304 76.3185 57.4904C76.4309 57.4046 76.5241 57.2962 76.5921 57.1722C76.66 57.0482 76.7013 56.9114 76.7132 56.7705C76.7274 56.5879 76.6963 56.4047 76.6225 56.2372C76.5485 56.0554 76.4439 55.8877 76.3132 55.7412C76.6546 56.0629 76.8844 56.4851 76.9692 56.9464C76.9744 56.9997 76.9744 57.0532 76.9692 57.1064V63.3352L77.0012 63.3779ZM70.9537 59.2396C70.75 59.2417 70.5479 59.2032 70.3593 59.1262C70.1707 59.0493 69.9994 58.9354 69.8553 58.7914C69.7113 58.6473 69.5975 58.476 69.5205 58.2874C69.4435 58.0988 69.405 57.8967 69.4072 57.693C69.4096 57.3439 69.5133 57.0031 69.7058 56.7118C69.9127 56.3788 70.1783 56.0861 70.4897 55.8479C70.8152 55.5867 71.1739 55.3697 71.5563 55.2026C71.9364 55.0319 72.3416 54.9238 72.7562 54.8826C72.4567 54.9123 72.171 55.0229 71.9296 55.2026C71.8413 55.2683 71.7694 55.3535 71.7194 55.4515C71.6695 55.5496 71.6429 55.6578 71.6416 55.7679C71.6429 55.9196 71.6833 56.0684 71.7589 56.1998C71.8472 56.351 71.9489 56.4938 72.0629 56.6265C72.2093 56.7618 72.3246 56.9272 72.401 57.1113C72.4775 57.2954 72.5131 57.4939 72.5056 57.693C72.5088 57.8984 72.4692 58.1021 72.3894 58.2912C72.3095 58.4804 72.191 58.6508 72.0416 58.7916C71.8986 58.9341 71.7289 59.047 71.5422 59.1239C71.3556 59.2008 71.1556 59.2401 70.9537 59.2396Z" fill="#898C8A"/>
<path d="M82.0836 59.021V63.7833C82.0881 64.0372 82.172 64.2834 82.3236 64.4872C82.4571 64.6919 82.666 64.8356 82.9049 64.8872H78.2439C78.4843 64.8358 78.6949 64.6922 78.8305 64.4872C78.9821 64.2834 79.066 64.0372 79.0705 63.7833V56.6372C79.0694 56.3811 78.9852 56.1322 78.8305 55.9279C78.6947 55.7241 78.4839 55.5823 78.2439 55.5333L81.6836 55.032H81.7423C81.7887 55.0247 81.8363 55.0285 81.8811 55.0431C81.9258 55.0577 81.9665 55.0826 81.9997 55.1159C82.033 55.1492 82.0579 55.1898 82.0725 55.2345C82.0871 55.2793 82.0909 55.3268 82.0836 55.3733V59.0317V59.021ZM87.3685 63.7833C87.373 64.0372 87.4569 64.2834 87.6084 64.4872C87.742 64.6919 87.9508 64.8356 88.1897 64.8872H83.5288C83.6474 64.8625 83.7599 64.8144 83.8597 64.7457C83.9595 64.677 84.0446 64.5891 84.1101 64.4872C84.2652 64.2849 84.3512 64.0381 84.3554 63.7833V57.8531C84.3479 57.629 84.4033 57.4073 84.5154 57.2132C84.6181 57.0419 84.7397 56.8827 84.878 56.7385C85.0048 56.6048 85.1241 56.4641 85.2353 56.3172C85.3464 56.1782 85.4049 56.0045 85.4006 55.8266C85.3939 55.703 85.3548 55.5834 85.2875 55.4795C85.2201 55.3757 85.1267 55.2912 85.0167 55.2347C84.7202 55.0546 84.3766 54.9673 84.0301 54.984C83.6437 54.978 83.2587 55.0319 82.8888 55.144C82.6481 55.2136 82.4128 55.301 82.1849 55.4053C82.6918 55.1565 83.2299 54.9771 83.7848 54.872C84.3457 54.7545 84.925 54.7545 85.4859 54.872C86.0093 54.9878 86.4809 55.2704 86.8298 55.6773C87.227 56.2167 87.4164 56.8813 87.3631 57.5491V63.7833H87.3685Z" fill="#898C8A"/>
<path d="M88.8244 59.5009C88.8873 58.826 89.0678 58.1672 89.3577 57.5544C89.6207 56.9841 89.9817 56.4643 90.4242 56.0186C90.8231 55.6097 91.3001 55.2851 91.8268 55.064C92.3308 54.8483 92.8812 54.7639 93.4267 54.8187C93.8934 54.8685 94.348 54.9984 94.7706 55.2026C94.5251 55.0903 94.2517 55.0541 93.9855 55.0988C93.7193 55.1434 93.4726 55.2669 93.2773 55.4533C92.9619 55.7375 92.7016 56.0773 92.5094 56.4559C92.2708 56.9223 92.0916 57.4168 91.9761 57.9277C91.8503 58.5041 91.7877 59.0924 91.7895 59.6823C91.788 60.2774 91.8506 60.871 91.9761 61.4528C92.0926 61.9686 92.2717 62.4683 92.5094 62.9406C92.7017 63.3254 92.9618 63.6723 93.2773 63.9646C93.5305 64.2024 93.8632 64.3374 94.2106 64.3432C94.3079 64.3453 94.405 64.3328 94.4986 64.3059C94.5909 64.2768 94.6817 64.243 94.7706 64.2045C94.419 64.4808 94.022 64.6938 93.5973 64.8338C93.1812 64.9765 92.7379 65.0221 92.3014 64.9671C91.761 64.9215 91.2413 64.7379 90.7922 64.4338C90.3304 64.1102 89.9386 63.6966 89.6403 63.2179C89.3126 62.6972 89.0779 62.1233 88.947 61.5221C88.7879 60.8608 88.7464 60.1766 88.8244 59.5009ZM97.8903 63.3779C97.8933 63.6321 97.9774 63.8787 98.1303 64.0819C98.1963 64.185 98.2821 64.2739 98.3828 64.3435C98.4835 64.4131 98.5971 64.4619 98.7169 64.4872L95.2772 64.9885H95.2238C95.1336 64.9877 95.0473 64.9513 94.9838 64.8871C94.95 64.8528 94.9235 64.812 94.9061 64.767C94.8886 64.7221 94.8806 64.674 94.8825 64.6258V52.4295C94.878 52.1756 94.7941 51.9294 94.6425 51.7256C94.5773 51.6235 94.4923 51.5355 94.3924 51.4668C94.2926 51.3981 94.18 51.3501 94.0613 51.3256L97.4956 50.8244H97.5543C97.601 50.8212 97.6478 50.8286 97.6913 50.8462C97.7347 50.8637 97.7736 50.8909 97.805 50.9257C97.8372 50.9607 97.8619 51.0019 97.8775 51.0469C97.8931 51.0919 97.8992 51.1395 97.8956 51.187V63.3779H97.8903Z" fill="#898C8A"/>
<path d="M106.876 62.1727C106.905 62.5609 106.818 62.9489 106.625 63.2872C106.422 63.6407 106.141 63.9434 105.804 64.1725C105.426 64.4338 105.008 64.6336 104.567 64.7644C104.086 64.9156 103.584 64.9911 103.079 64.9884C103.256 64.9891 103.431 64.9497 103.591 64.873C103.751 64.7963 103.891 64.6845 104.002 64.5458C104.248 64.2762 104.385 63.9244 104.386 63.5592C104.377 63.2023 104.245 62.8594 104.012 62.5886C103.732 62.2397 103.416 61.9215 103.068 61.6394C102.69 61.3301 102.279 61.0048 101.842 60.6688C101.417 60.3346 101.009 59.9786 100.621 59.6022C100.257 59.2619 99.9378 58.8766 99.6714 58.4557C99.4285 58.0633 99.301 57.6105 99.3034 57.1491C99.291 56.7682 99.4034 56.3937 99.6234 56.0825C99.841 55.7844 100.119 55.5355 100.439 55.3519C100.778 55.1499 101.147 55.0041 101.533 54.92C101.913 54.8265 102.303 54.7781 102.695 54.776H103.031C103.136 54.7778 103.239 54.7921 103.34 54.8186C103.176 54.7889 103.007 54.7959 102.846 54.8392C102.684 54.8826 102.534 54.9611 102.407 55.0693C102.271 55.1955 102.165 55.3506 102.097 55.5231C102.028 55.6957 102 55.8814 102.012 56.0665C102.016 56.4287 102.135 56.7803 102.354 57.0691C102.606 57.4017 102.896 57.7041 103.218 57.9704C103.573 58.269 103.952 58.5676 104.354 58.8663C104.764 59.1703 105.148 59.4849 105.511 59.8102C105.861 60.1266 106.171 60.4848 106.433 60.8768C106.695 61.2612 106.847 61.7088 106.876 62.1727ZM101.474 64.1832C101.492 64.2916 101.533 64.3949 101.594 64.4867C101.654 64.5785 101.733 64.6568 101.826 64.7164C102.083 64.8894 102.385 64.9839 102.695 64.9884C102.247 64.9664 101.805 64.8784 101.383 64.7271C101.005 64.5989 100.646 64.4195 100.317 64.1938C100.024 63.9793 99.7753 63.7093 99.586 63.3992C99.4074 63.1051 99.3133 62.7674 99.3141 62.4233C99.3141 62.0132 99.477 61.6198 99.767 61.3298C100.057 61.0397 100.45 60.8768 100.861 60.8768C101.071 60.8747 101.28 60.9165 101.474 60.9994C101.662 61.0739 101.833 61.1865 101.975 61.3301C102.116 61.4711 102.228 61.6376 102.306 61.8207C102.392 62.0231 102.433 62.2416 102.428 62.4614C102.422 62.6813 102.37 62.8974 102.274 63.0953C102.178 63.3011 102.038 63.4832 101.863 63.6285C101.762 63.7196 101.668 63.8176 101.581 63.9219C101.514 63.9925 101.475 64.0858 101.474 64.1832ZM106.215 58.3597C106.151 58.0226 106.067 57.6897 105.964 57.3624C105.847 56.9881 105.684 56.6298 105.479 56.2958C105.268 55.9582 105.003 55.6574 104.695 55.4053C104.362 55.1336 103.966 54.9502 103.543 54.872C103.743 54.907 103.94 54.9533 104.135 55.0106L104.668 55.1706C104.822 55.2226 104.978 55.2636 105.138 55.2933C105.302 55.3125 105.469 55.3125 105.634 55.2933C105.753 55.2745 105.87 55.2478 105.985 55.2133C106.08 55.188 106.167 55.1384 106.236 55.0693L106.215 58.3597Z" fill="#898C8A"/>
<path d="M156.173 38.548C156.171 39.3717 155.883 40.1692 155.36 40.8051C154.836 41.441 154.109 41.8763 153.301 42.0369C152.493 42.1976 151.655 42.0738 150.928 41.6866C150.201 41.2993 149.63 40.6725 149.313 39.9124C148.996 39.1524 148.951 38.3059 149.187 37.5167C149.423 36.7275 149.924 36.0442 150.606 35.5827C151.289 35.1212 152.109 34.91 152.93 34.9849C153.75 35.0598 154.519 35.4162 155.106 35.9936C155.45 36.3231 155.723 36.72 155.906 37.1596C156.09 37.5991 156.181 38.0718 156.173 38.548Z" fill="#898C8A"/>
<path d="M53.8568 10.8651C55.2728 10.9493 56.5995 11.5849 57.5525 12.6356C58.4017 13.5734 58.8613 14.7997 58.8377 16.0647C58.8279 17.3049 58.3309 18.4915 57.4539 19.3685C56.5769 20.2455 55.3903 20.7425 54.1501 20.7523C53.5308 20.7558 52.9173 20.6324 52.3476 20.3896C51.2284 19.9174 50.341 19.0223 49.8784 17.8992C49.6437 17.3162 49.5242 16.6932 49.5265 16.0647C49.5298 15.7396 49.5691 15.4158 49.6438 15.0994C49.8251 14.2942 49.6865 13.7449 49.1585 13.4462C48.6306 13.1476 47.6173 13.4089 46.4547 13.9795C46.988 13.6969 49.9798 10.8758 53.8568 10.8758V10.8651ZM46.4547 38.852C46.4547 40.9852 48.5879 42.1584 49.9318 42.1584H33.9918C34.4686 42.1781 34.9445 42.1001 35.39 41.9291C35.8356 41.7581 36.2414 41.4978 36.5826 41.1641C36.9237 40.8304 37.193 40.4304 37.3739 39.9888C37.5547 39.5472 37.6433 39.0732 37.6342 38.5961V17.3979C37.6308 16.9192 37.5322 16.446 37.3442 16.0058C37.1562 15.5655 36.8825 15.1671 36.5391 14.8336C36.1957 14.5001 35.7894 14.2382 35.3439 14.0632C34.8983 13.8882 34.4224 13.8036 33.9438 13.8142L45.2655 12.6463H45.4468C45.5857 12.6265 45.7272 12.6394 45.8602 12.684C45.9931 12.7286 46.1139 12.8035 46.2128 12.9029C46.3117 13.0024 46.386 13.1235 46.4299 13.2567C46.4737 13.3899 46.4859 13.5315 46.4654 13.6702L46.4547 38.852Z" fill="#898C8A"/>
<path d="M128.362 38.852C128.425 39.7384 128.818 40.569 129.464 41.1793C130.11 41.7897 130.961 42.1353 131.85 42.1477H116.347C116.819 42.1496 117.286 42.0507 117.716 41.8575C118.147 41.6644 118.531 41.3815 118.843 41.0278C119.444 40.404 119.792 39.5792 119.819 38.7134V5.27626C119.832 4.80938 119.751 4.34469 119.58 3.90992C119.409 3.47514 119.153 3.0792 118.826 2.74573C118.499 2.41225 118.108 2.14807 117.677 1.96896C117.245 1.78985 116.782 1.69947 116.315 1.70323L127.338 0.012714C127.481 -0.0107623 127.627 -0.00164402 127.765 0.03938C127.943 0.112268 128.1 0.227612 128.223 0.375349C128.41 0.592744 128.507 0.872945 128.495 1.15928L128.362 38.852Z" fill="#898C8A"/>
<path d="M144.105 38.8252C144.176 39.6973 144.56 40.5142 145.186 41.1249C145.813 41.7357 146.639 42.099 147.513 42.1476H131.951C132.872 42.1626 133.762 41.8196 134.435 41.1908C135.107 40.5621 135.509 39.6967 135.556 38.7772L135.284 21.1148C135.244 20.4384 135.414 19.7662 135.77 19.1896C137.338 16.9338 139.348 15.5792 137.268 13.2701C136.745 12.6363 136.072 12.1427 135.311 11.8336C134.549 11.5245 133.723 11.4097 132.906 11.4996C131.087 11.6489 129.839 12.1875 128.496 13.9687C129.509 11.9102 132.335 10.769 134.202 10.577C135.811 10.3888 137.441 10.6423 138.917 11.3103C140.393 11.9783 141.659 13.0356 142.58 14.3687C143.744 16.1135 144.34 18.1755 144.286 20.2722L144.105 38.8252Z" fill="#898C8A"/>
<path d="M112.609 36.9642C111.928 38.5635 110.772 39.915 109.297 40.8358C107.877 41.6704 106.263 42.1207 104.615 42.1424C103.65 42.1424 102.733 42.1424 101.725 42.1424C102.791 42.1424 103.549 42.105 104.482 41.2251C104.864 40.8987 105.165 40.4879 105.361 40.0251C105.558 39.5624 105.643 39.0604 105.612 38.5587C105.583 37.368 105.176 36.2175 104.45 35.2736C103.61 34.2357 102.663 33.29 101.623 32.4525C100.477 31.5086 99.2556 30.5434 97.9544 29.5355C96.6784 28.5616 95.4554 27.5202 94.2907 26.4157C93.2058 25.3983 92.2559 24.2459 91.4643 22.9867C90.7384 21.8119 90.3525 20.4587 90.3497 19.0777C90.3832 16.7543 91.3138 14.5339 92.9468 12.8809C92.9468 12.8329 98.477 7.67068 104.322 11.281C103.047 10.5771 100.903 11.0037 99.5916 12.1823C98.8503 12.8489 98.4077 14.1128 98.4663 15.9153C98.4854 16.9977 98.8414 18.0472 99.4849 18.9177C100.243 19.9114 101.111 20.8165 102.071 21.6161C103.117 22.5014 104.249 23.3902 105.468 24.2826C106.677 25.1527 107.832 26.0966 108.924 27.109C113.948 31.9086 113.425 35.311 112.609 36.9802V36.9642ZM96.9091 40.4412C97.0436 40.7314 97.2353 40.9915 97.4726 41.2059C97.7099 41.4203 97.9881 41.5846 98.2904 41.6891C99.1774 42.0807 100.143 42.2632 101.111 42.2224C99.7397 42.3011 98.3635 42.2368 97.0051 42.0304C95.7962 41.9085 94.6119 41.6084 93.4908 41.1398C92.4903 40.7234 91.5836 40.1104 90.8243 39.3373C90.0988 38.6016 89.5928 37.6782 89.3631 36.6708C89.2205 36.0797 89.1961 35.4662 89.2914 34.8656C89.3867 34.265 89.5999 33.6891 89.9185 33.1712C90.2372 32.6533 90.6552 32.2035 91.1484 31.8477C91.6415 31.4919 92.2002 31.2371 92.7922 31.098C93.403 30.9483 94.0378 30.9229 94.6587 31.0233C95.2538 31.1147 95.825 31.3228 96.3394 31.6358C96.8538 31.9488 97.3011 32.3605 97.6557 32.8472C98.0205 33.3428 98.2817 33.9069 98.4237 34.5057C98.5781 35.185 98.5781 35.8902 98.4237 36.5695C98.2741 37.2313 97.991 37.8555 97.5917 38.404C97.3544 38.7312 97.1474 39.0793 96.9731 39.4439C96.8963 39.5944 96.8501 39.7586 96.8373 39.9271C96.8245 40.0955 96.8453 40.2649 96.8985 40.4252" fill="#898C8A"/>
<path d="M113.649 10.8651V20.0536C113.409 17.9525 108.604 13.6009 104.791 11.5851C107.692 13.2756 112.15 13.7555 113.649 10.8651Z" fill="#898C8A"/>
<path d="M84.99 37.6415C84.99 39.1667 85.0967 39.7746 85.5713 40.5319C85.8931 41.0122 86.3255 41.4082 86.8322 41.6866C87.3389 41.965 87.9051 42.1177 88.483 42.1317L76.8467 42.1637C76.6348 42.1647 76.4297 42.0892 76.2691 41.951C76.1084 41.8129 76.003 41.6214 75.9721 41.4118C75.9695 41.3905 75.9695 41.369 75.9721 41.3478V23.9946C75.4708 24.2399 74.8682 24.5279 74.1696 24.9012C73.427 25.2869 72.7399 25.7712 72.1271 26.3411C71.4205 26.9974 70.8308 27.7693 70.3833 28.6236C69.7151 30.1218 69.2799 31.7134 69.0927 33.3432C68.9647 34.7884 69.2527 37.2841 70.2713 38.3561C70.6529 38.7892 71.1349 39.1222 71.6751 39.3258C72.2153 39.5294 72.7971 39.5974 73.3697 39.524C73.8985 39.4668 74.4083 39.2937 74.8627 39.0172C75.3171 38.7407 75.705 38.3675 75.9988 37.9241C75.3478 39.3995 74.2213 40.6142 72.7991 41.3745C71.5406 42.086 70.1171 42.4538 68.6714 42.441C66.6343 42.441 61.904 41.0492 60.9867 35.8923C60.1335 31.0927 63.4665 28.2129 65.701 27.2797C66.6503 26.8797 70.7033 25.3705 72.1005 24.8906C73.4977 24.4106 74.9322 23.9306 76.3294 23.4453C77.6327 23.0071 78.9064 22.4852 80.1424 21.8828C81.1626 21.4306 82.1127 20.8344 82.9635 20.1123C87.3151 16.1126 80.1691 12.5663 80.1691 12.5663C80.1691 12.5663 84.9047 14.5128 84.9047 18.5124C84.9047 19.915 84.9687 37.6308 84.9687 37.6308" fill="#898C8A"/>
<path d="M71.5351 13.4836C71.6539 13.8699 71.8074 14.2448 71.9937 14.6035C72.3036 15.2029 72.4853 15.8604 72.527 16.534C72.5753 17.1628 72.4938 17.7949 72.2875 18.3909C72.0813 18.9869 71.7548 19.5342 71.3282 19.9988C70.9017 20.4634 70.3842 20.8353 69.8079 21.0915C69.2316 21.3477 68.6087 21.4828 67.978 21.4882C67.3499 21.4975 66.7263 21.3815 66.1435 21.1469C65.5774 20.924 65.061 20.5915 64.6237 20.1684C64.1865 19.7454 63.8372 19.2401 63.5959 18.6816C63.3546 18.1231 63.226 17.5224 63.2175 16.9141C63.209 16.3058 63.3208 15.7018 63.5464 15.1368C63.9214 14.1781 64.5568 13.3432 65.3809 12.7263C66.2481 12.0702 67.2383 11.5951 68.2927 11.3291C69.4717 11.0302 70.6877 10.9027 71.9031 10.9505C73.2489 10.9648 74.5855 11.175 75.8707 11.5744C74.9828 11.2748 74.0274 11.2378 73.1189 11.4677C72.8053 11.5266 72.5069 11.6487 72.242 11.8265C71.977 12.0044 71.751 12.2343 71.5777 12.5023C71.499 12.6523 71.4527 12.8171 71.4417 12.9862C71.4306 13.1552 71.4552 13.3246 71.5137 13.4836" fill="#898C8A"/>
<path d="M31.0427 40.8733L30.8027 40.6067C29.8114 39.4104 28.9697 38.0977 28.2962 36.6977C27.442 35.0198 26.68 33.2965 26.0137 31.5355C25.2885 29.669 24.5152 27.8878 23.7313 26.2026C22.9474 24.5174 21.5981 21.0564 19.5556 19.8031C19.129 22.0856 16.3559 24.4268 12.1216 25.3493L12.1803 1.18076C12.1933 0.894261 12.096 0.61367 11.9083 0.396824C11.783 0.25269 11.626 0.139521 11.4497 0.0661841C11.3157 0.0216974 11.1729 0.0107126 11.0337 0.0341882L0 1.70871C0.466049 1.71005 0.92717 1.80407 1.35654 1.9853C1.78591 2.16653 2.17495 2.43136 2.501 2.76436C2.82706 3.09737 3.08362 3.4919 3.25576 3.92499C3.4279 4.35808 3.51219 4.82109 3.5037 5.28707V38.7082C3.50429 39.5751 3.16546 40.4078 2.55977 41.028C1.88783 41.6946 0 42.1479 0 42.1479H15.5506C14.6647 42.1298 13.8177 41.7802 13.1769 41.168C12.5361 40.5559 12.1482 39.7257 12.0896 38.8415L12.1216 25.5733C12.4319 25.6054 12.7306 25.7081 12.995 25.8736C13.2594 26.0391 13.4824 26.2629 13.6468 26.5279C14.4144 27.5828 15.0872 28.7035 15.6573 29.8769C16.3026 31.1622 16.9105 32.5434 17.4865 33.9726C18.0624 35.4018 18.6491 36.7404 19.2303 37.9509C19.678 38.9164 20.2004 39.8453 20.7929 40.7293C20.7929 40.7293 21.6355 42.1479 22.6434 42.1479H33.5598C32.6099 41.9913 31.7311 41.5463 31.0427 40.8733Z" fill="#898C8A"/>
<path d="M17.7266 12.4223H29.0643C26.2485 12.4223 22.3022 15.0621 20.041 18.4644C20.681 16.9712 19.8117 14.2941 17.7266 12.4223Z" fill="#898C8A"/>
</svg>