<?xml version="1.0" encoding="UTF-8"?>
<svg id="Capa_1" xmlns="http://www.w3.org/2000/svg" version="1.1" viewBox="0 0 1024 768">
  <!-- Generator: Adobe Illustrator 29.0.1, SVG Export Plug-In . SVG Version: 2.1.0 Build 192)  -->
  <defs>
    <style>
      .st0, .st1 {
        fill: #fff;
      }

      .st1 {
        fill-rule: evenodd;
      }

      .st2 {
        fill: gray;
      }
    </style>
  </defs>
  <path class="st0" d="M695.7,336.5c0-44.2-35.9-80.1-80.1-80.1h-204.9c-44.2,0-80.1,35.9-80.1,80.1v95.3c0,44.2,35.9,80.1,80.1,80.1h204.9c44.2,0,80.1-35.9,80.1-80.1v-95.3ZM575.2,391.3l-91.9,45.4c-3.6,1.9-15.8-.7-15.8-4.8v-93.3c0-4.1,12.3-6.8,15.9-4.7l87.9,47.8c3.7,2.1,7.6,7.4,3.8,9.5Z"/>
  <g>
    <circle class="st2" cx="513.2" cy="384.1" r="368.8"/>
    <path class="st1" d="M488,453c-.3,1.1-.6,2.1-.9,3.1-14.6,57.2-16.2,69.9-31.2,96.4-7.2,12.6-15.2,24.6-24.1,36-1,1.3-1.9,3-4,2.6-2.2-.5-2.4-2.4-2.6-4.2-2.4-17.4-3.7-34.8-3.1-52.3.8-22.9,3.6-30.7,33-154.6.4-1.9,0-3.5-.7-5.2-7-19-8.4-38.3-2.3-57.9,13.3-42.2,61.2-45.5,69.6-10.6,5.2,21.6-8.5,49.8-19,91.5-8.7,34.4,31.8,58.9,66.5,33.8,31.9-23.2,44.3-78.7,42-118-4.6-78.5-90.7-95.4-145.3-70.1-62.6,28.9-76.8,106.5-48.5,141.9,3.6,4.5,6.3,7.3,5.2,11.8-1.8,7.1-3.4,14.2-5.4,21.3-1.5,5.3-5.9,7.2-11.2,5-10.4-4.2-19.1-10.8-26.1-19.6-24-29.7-30.9-88.5.9-138.2,35.1-55.1,100.5-77.4,160.2-70.6,71.3,8.1,116.3,56.8,124.8,112.1,3.8,25.2,1.1,87.2-34.3,131.1-40.7,50.4-106.5,53.8-136.9,22.8-2.3-2.4-4.2-5.2-6.5-8Z"/>
  </g>
</svg>