<?xml version="1.0" encoding="UTF-8"?>
<svg id="Capa_1" xmlns="http://www.w3.org/2000/svg" version="1.1" viewBox="0 0 1024 768">
  <!-- Generator: Adobe Illustrator 29.0.1, SVG Export Plug-In . SVG Version: 2.1.0 Build 192)  -->
  <defs>
    <style>
      .st0 {
        fill: #fff;
      }

      .st1 {
        fill: gray;
      }
    </style>
  </defs>
  <circle class="st1" cx="513.2" cy="398.4" r="349.6"/>
  <path class="st0" d="M312.8,390.2s174.9-71.8,235.5-97c23.2-10.1,102.1-42.5,102.1-42.5,0,0,36.4-14.2,33.4,20.2-1,14.2-9.1,63.7-17.2,117.3-12.1,75.8-25.3,158.7-25.3,158.7,0,0-2,23.2-19.2,27.3-17.2,4-45.5-14.2-50.5-18.2-4-3-75.8-48.5-102.1-70.8-7.1-6.1-15.2-18.2,1-32.3,36.4-33.4,79.9-74.8,106.1-101.1,12.1-12.1,24.3-40.4-26.3-6.1-71.8,49.5-142.5,96-142.5,96,0,0-16.2,10.1-46.5,1-30.3-9.1-65.7-21.2-65.7-21.2,0,0-24.3-15.2,17.2-31.3h0Z"/>
</svg>