<?xml version="1.0" encoding="UTF-8"?>
<svg id="Capa_1" xmlns="http://www.w3.org/2000/svg" version="1.1" viewBox="0 0 1024 768">
  <!-- Generator: Adobe Illustrator 29.0.1, SVG Export Plug-In . SVG Version: 2.1.0 Build 192)  -->
  <defs>
    <style>
      .st0 {
        fill: #fff;
      }

      .st1 {
        fill: gray;
      }
    </style>
  </defs>
  <path class="st0" d="M554.7,627.5v-212.6h70.9l13.5-87.9h-84.4v-57.1c0-24.1,11.8-47.5,49.6-47.5h38.4v-74.9s-34.8-5.9-68.1-5.9c-69.5,0-114.9,42.1-114.9,118.4v67h-77.2v87.9h77.2v212.6h95.1Z"/>
  <g>
    <circle class="st1" cx="512" cy="384" r="381"/>
    <path class="st0" d="M544.3,357.2l126.4-146.9h-29.9l-109.7,127.5-87.6-127.5h-101.1l132.5,192.9-132.5,154h29.9l115.9-134.7,92.5,134.7h101.1l-137.4-200h0ZM503.3,404.9l-13.4-19.2-106.8-152.8h46l86.2,123.3,13.4,19.2,112.1,160.3h-46l-91.5-130.8h0Z"/>
  </g>
</svg>